<svg xmlns="http://www.w3.org/2000/svg" xmlns:xlink="http://www.w3.org/1999/xlink" width="300" zoomAndPan="magnify" viewBox="0 0 224.87999 225" height="300" preserveAspectRatio="xMidYMid meet" version="1.0"><defs><g/></defs><g fill="#000000" fill-opacity="1"><g transform="translate(15.689992, 193.366589)"><g><path d="M 138.53125 -188.875 C 139.613281 -187.425781 140.066406 -185.972656 139.890625 -184.515625 C 136.984375 -143.335938 135.257812 -112.132812 134.71875 -90.90625 C 134.175781 -72.394531 133.90625 -44.816406 133.90625 -8.171875 C 133.90625 -4.535156 132.085938 -2.71875 128.453125 -2.71875 L 88.171875 -2.71875 C 86.722656 -2.71875 85.453125 -3.21875 84.359375 -4.21875 C 83.273438 -5.21875 82.734375 -6.535156 82.734375 -8.171875 L 82.734375 -11.4375 C 83.460938 -11.789062 83.828125 -12.0625 83.828125 -12.25 L 83.828125 -13.0625 L 83 -13.0625 L 83.28125 -20.6875 L 84.375 -21.234375 C 84.375 -21.410156 84.234375 -21.585938 83.953125 -21.765625 C 83.679688 -21.953125 83.457031 -22.132812 83.28125 -22.3125 L 86.28125 -79.46875 L 81.109375 -78.921875 L 76.203125 -78.109375 C 75.117188 -78.109375 73.847656 -77.925781 72.390625 -77.5625 C 71.484375 -77.5625 70.125 -77.378906 68.3125 -77.015625 C 63.414062 -75.742188 57.15625 -73.75 49.53125 -71.03125 L 48.4375 -6.265625 C 48.4375 -2.628906 46.625 -0.8125 43 -0.8125 L 3 0 C 1.175781 0 -0.226562 -0.539062 -1.21875 -1.625 C -2.21875 -2.71875 -2.71875 -4.171875 -2.71875 -5.984375 L 9.25 -183.703125 C 9.613281 -187.148438 11.429688 -188.875 14.703125 -188.875 L 49.53125 -189.6875 C 51.34375 -189.6875 52.789062 -189.097656 53.875 -187.921875 C 54.96875 -186.742188 55.425781 -185.429688 55.25 -183.984375 L 50.890625 -118.9375 L 61.5 -119.203125 L 62.046875 -118.390625 C 62.046875 -118.023438 62.5 -117.84375 63.40625 -117.84375 C 63.957031 -117.84375 64.320312 -118.207031 64.5 -118.9375 L 63.140625 -119.203125 L 88.453125 -120.296875 L 92.265625 -185.34375 C 92.441406 -188.789062 94.253906 -190.515625 97.703125 -190.515625 L 134.4375 -190.515625 C 135.894531 -190.515625 137.257812 -189.96875 138.53125 -188.875 Z M 48.984375 -178.265625 C 48.617188 -178.628906 47.894531 -179.082031 46.8125 -179.625 L 41.640625 -180.171875 L 41.09375 -180.171875 L 38.640625 -179.890625 L 37.015625 -179.890625 C 36.472656 -179.710938 35.566406 -179.625 34.296875 -179.625 L 32.65625 -179.625 C 32.113281 -179.625 31.84375 -179.710938 31.84375 -179.890625 L 31.84375 -180.71875 L 29.671875 -180.71875 C 28.753906 -179.800781 28.117188 -179.34375 27.765625 -179.34375 C 27.578125 -179.53125 26.847656 -179.441406 25.578125 -179.078125 C 27.390625 -178.347656 28.929688 -177.984375 30.203125 -177.984375 L 32.109375 -178.53125 L 34.015625 -178.8125 C 34.203125 -178.8125 34.472656 -178.765625 34.828125 -178.671875 C 35.191406 -178.578125 35.921875 -178.53125 37.015625 -178.53125 L 46.265625 -178.265625 L 47.078125 -177.71875 C 47.265625 -177.539062 47.628906 -177.453125 48.171875 -177.453125 Z M 22.3125 -175.8125 C 22.3125 -175.988281 22.21875 -176.164062 22.03125 -176.34375 C 21.851562 -176.53125 21.675781 -176.625 21.5 -176.625 C 21.132812 -176.988281 20.953125 -177.265625 20.953125 -177.453125 L 21.234375 -177.984375 L 21.234375 -178.8125 L 19.59375 -178.53125 L 18.78125 -178.265625 L 18.78125 -175.546875 C 19.144531 -174.992188 19.6875 -174.71875 20.40625 -174.71875 Z M 23.671875 -169.546875 L 23.671875 -170.921875 L 22.859375 -170.921875 L 22.859375 -169.546875 Z M 97.703125 -168.734375 C 97.703125 -168.367188 98.066406 -167.828125 98.796875 -167.109375 L 100.15625 -168.1875 C 99.789062 -168.550781 99.609375 -168.734375 99.609375 -168.734375 Z M 114.3125 -166.28125 L 114.3125 -167.375 L 113.484375 -167.375 L 113.484375 -166.28125 Z M 109.140625 -162.75 L 109.140625 -163.296875 L 108.3125 -163.296875 L 108.3125 -162.75 Z M 107.5 -157.578125 L 107.5 -158.671875 L 106.953125 -158.671875 L 106.953125 -157.578125 Z M 28.578125 -154.859375 L 28.296875 -154.859375 L 27.765625 -154.3125 L 28.296875 -154.046875 Z M 43.8125 -149.40625 C 43.8125 -149.957031 43.539062 -150.320312 43 -150.5 C 42.632812 -150.863281 42.632812 -151.226562 43 -151.59375 C 43 -152.132812 42.910156 -152.492188 42.734375 -152.671875 L 41.640625 -152.671875 L 40.28125 -151.859375 L 40.28125 -150.234375 L 43 -149.140625 L 43.546875 -149.140625 Z M 98.796875 -152.671875 L 98.796875 -152.140625 L 100.703125 -152.140625 L 100.703125 -152.671875 Z M 100.15625 -148.59375 L 102.328125 -148.59375 L 102.328125 -149.140625 L 100.15625 -149.140625 Z M 113.484375 -134.4375 C 113.484375 -134.082031 113.847656 -133.722656 114.578125 -133.359375 C 115.660156 -132.628906 116.203125 -132.265625 116.203125 -132.265625 L 114.84375 -133.625 Z M 69.40625 -115.9375 C 68.675781 -116.664062 67.945312 -117.03125 67.21875 -117.03125 C 67.039062 -116.84375 66.859375 -116.75 66.671875 -116.75 L 66.671875 -116.203125 C 66.671875 -116.023438 66.945312 -115.753906 67.5 -115.390625 C 68.582031 -114.847656 69.035156 -114.664062 68.859375 -114.84375 L 69.125 -115.390625 Z M 76.203125 -114.84375 L 76.75 -114.84375 L 76.203125 -115.390625 L 75.65625 -115.125 Z M 62.328125 -111.578125 C 63.410156 -111.222656 64.222656 -111.585938 64.765625 -112.671875 L 63.140625 -112.671875 C 62.597656 -112.492188 62.328125 -112.128906 62.328125 -111.578125 Z M 70.765625 -111.3125 C 71.128906 -111.132812 71.488281 -110.90625 71.84375 -110.625 C 72.207031 -110.351562 72.570312 -110.21875 72.9375 -110.21875 L 73.75 -111.046875 L 73.484375 -111.578125 L 73.203125 -111.859375 L 71.03125 -111.859375 L 71.03125 -111.578125 Z M 67.765625 -107.234375 C 68.859375 -108.316406 69.40625 -108.953125 69.40625 -109.140625 L 69.125 -109.953125 C 68.945312 -109.953125 68.859375 -110.039062 68.859375 -110.21875 L 66.953125 -109.671875 C 66.585938 -109.671875 66.359375 -109.582031 66.265625 -109.40625 C 66.179688 -109.226562 66.179688 -109 66.265625 -108.71875 C 66.359375 -108.445312 66.40625 -108.222656 66.40625 -108.046875 L 67.21875 -106.6875 C 67.21875 -106.6875 67.398438 -106.867188 67.765625 -107.234375 Z M 62.875 -109.671875 L 62.875 -109.140625 L 64.234375 -109.140625 L 64.234375 -109.671875 Z M 85.734375 -107.234375 C 86.640625 -108.140625 87.453125 -108.773438 88.171875 -109.140625 C 87.453125 -109.140625 87.09375 -109.226562 87.09375 -109.40625 C 86.550781 -108.863281 86.003906 -108.59375 85.453125 -108.59375 C 84.910156 -108.59375 84.367188 -108.863281 83.828125 -109.40625 C 83.640625 -109.226562 83.226562 -108.910156 82.59375 -108.453125 C 81.957031 -108.003906 81.640625 -107.6875 81.640625 -107.5 C 81.640625 -106.769531 81.820312 -106.316406 82.1875 -106.140625 C 84.363281 -106.316406 85.546875 -106.679688 85.734375 -107.234375 Z M 92.265625 -108.046875 C 92.265625 -107.867188 92.304688 -107.734375 92.390625 -107.640625 C 92.484375 -107.546875 92.53125 -107.5 92.53125 -107.5 C 92.53125 -107.5 92.578125 -107.453125 92.671875 -107.359375 C 92.765625 -107.273438 92.8125 -107.234375 92.8125 -107.234375 L 93.625 -108.046875 Z M 62.875 -106.40625 C 62.875 -106.769531 62.960938 -106.953125 63.140625 -106.953125 L 62.875 -107.5 L 62.328125 -107.234375 L 62.046875 -107.234375 Z M 83.28125 -100.421875 C 82.550781 -101.515625 81.644531 -102.0625 80.5625 -102.0625 L 80.015625 -102.0625 C 80.015625 -101.875 79.832031 -101.78125 79.46875 -101.78125 C 78.925781 -101.78125 78.382812 -102.054688 77.84375 -102.609375 C 78.75 -103.148438 79.5625 -103.421875 80.28125 -103.421875 C 81.007812 -103.421875 81.460938 -103.054688 81.640625 -102.328125 C 81.640625 -102.691406 81.820312 -103.144531 82.1875 -103.6875 C 82.550781 -104.238281 82.914062 -104.601562 83.28125 -104.78125 L 81.640625 -104.78125 L 81.109375 -104.515625 C 80.378906 -104.515625 79.785156 -104.691406 79.328125 -105.046875 C 78.878906 -105.410156 78.65625 -105.773438 78.65625 -106.140625 C 78.65625 -105.054688 78.019531 -104.515625 76.75 -104.515625 L 76.75 -104.78125 L 75.390625 -104.78125 C 75.203125 -104.78125 74.929688 -104.597656 74.578125 -104.234375 L 74.296875 -104.234375 L 74.03125 -103.96875 C 73.125 -103.96875 72.671875 -103.601562 72.671875 -102.875 L 74.296875 -102.609375 C 74.660156 -101.878906 75.382812 -101.332031 76.46875 -100.96875 C 77.195312 -100.789062 78.285156 -100.25 79.734375 -99.34375 L 83.28125 -99.34375 Z M 87.09375 -105.875 L 88.71875 -105.328125 L 88.71875 -105.59375 L 87.640625 -106.140625 Z M 61.78125 -103.421875 C 61.414062 -103.421875 61.234375 -103.238281 61.234375 -102.875 L 62.59375 -102.875 Z M 91.4375 -101.515625 C 91.257812 -102.054688 90.71875 -102.328125 89.8125 -102.328125 L 89.265625 -101.515625 Z M 99.875 -100.421875 C 100.601562 -100.421875 101.148438 -100.515625 101.515625 -100.703125 C 101.878906 -100.703125 102.148438 -100.789062 102.328125 -100.96875 L 102.875 -101.234375 L 102.328125 -101.78125 C 101.960938 -101.78125 101.691406 -101.875 101.515625 -102.0625 L 100.703125 -102.0625 C 100.515625 -102.0625 100.238281 -102.101562 99.875 -102.1875 C 99.519531 -102.28125 98.976562 -102.328125 98.25 -102.328125 L 97.703125 -100.96875 L 98.796875 -100.421875 Z M 64.5 -99.875 L 64.5 -99.0625 L 65.046875 -99.0625 L 65.046875 -99.875 Z M 91.984375 -99.0625 L 90.625 -99.0625 L 90.625 -98.515625 L 91.984375 -98.515625 Z M 78.109375 -97.703125 L 78.109375 -96.890625 L 78.65625 -96.890625 L 78.65625 -97.703125 Z M 84.90625 -92.53125 C 85.457031 -93.070312 85.820312 -93.34375 86 -93.34375 L 84.09375 -93.34375 L 81.921875 -93.890625 L 81.640625 -92.53125 C 81.640625 -92.53125 81.6875 -92.484375 81.78125 -92.390625 C 81.875 -92.304688 81.921875 -92.265625 81.921875 -92.265625 L 82.46875 -91.984375 L 83.546875 -91.71875 C 83.910156 -91.71875 84.363281 -91.988281 84.90625 -92.53125 Z M 91.171875 -91.984375 L 91.171875 -93.34375 L 88.71875 -93.34375 L 88.171875 -92.53125 C 88.898438 -92.164062 89.265625 -91.984375 89.265625 -91.984375 L 90.359375 -91.71875 Z M 109.140625 -89.265625 L 109.953125 -90.078125 C 109.765625 -90.078125 109.492188 -90.351562 109.140625 -90.90625 L 106.40625 -90.90625 L 106.140625 -90.625 L 106.140625 -89.546875 Z M 114.84375 -86 C 114.84375 -86 114.929688 -85.953125 115.109375 -85.859375 C 115.296875 -85.773438 115.753906 -86.09375 116.484375 -86.8125 L 115.9375 -87.09375 L 115.671875 -87.640625 C 114.941406 -87.640625 114.578125 -87.363281 114.578125 -86.8125 C 114.578125 -86.269531 114.664062 -86 114.84375 -86 Z M 96.609375 -86.8125 C 96.429688 -87 95.976562 -87.09375 95.25 -87.09375 L 95.796875 -85.734375 C 96.160156 -85.910156 96.34375 -86.085938 96.34375 -86.265625 C 96.34375 -86.453125 96.429688 -86.632812 96.609375 -86.8125 Z M 128.1875 -84.375 L 128.1875 -79.46875 C 128.1875 -79.101562 128.410156 -78.828125 128.859375 -78.640625 C 129.316406 -78.460938 129.726562 -78.46875 130.09375 -78.65625 L 130.09375 -84.375 Z M 106.6875 -77.296875 L 107.234375 -77.296875 L 107.5 -78.375 L 106.953125 -78.375 Z M 34.84375 -75.65625 L 36.46875 -75.390625 L 36.46875 -75.65625 L 36.203125 -75.9375 L 36.203125 -76.203125 C 35.648438 -76.023438 34.921875 -75.9375 34.015625 -75.9375 L 32.65625 -75.9375 Z M 37.828125 -74.03125 C 38.921875 -74.03125 39.644531 -74.210938 40 -74.578125 L 40 -75.390625 C 39.820312 -75.566406 39.367188 -75.65625 38.640625 -75.65625 L 38.109375 -75.390625 L 37.828125 -75.109375 L 37.28125 -75.109375 L 37.28125 -74.03125 Z M 22.859375 -73.484375 C 23.222656 -73.117188 23.585938 -72.570312 23.953125 -71.84375 C 24.316406 -71.488281 24.539062 -71.171875 24.625 -70.890625 C 24.71875 -70.617188 24.851562 -70.394531 25.03125 -70.21875 C 25.394531 -70.21875 25.671875 -70.304688 25.859375 -70.484375 L 27.21875 -71.3125 C 27.9375 -71.851562 28.296875 -72.394531 28.296875 -72.9375 C 28.296875 -73.476562 28.117188 -73.84375 27.765625 -74.03125 C 27.578125 -74.03125 27.4375 -74.117188 27.34375 -74.296875 C 27.257812 -74.484375 27.21875 -74.578125 27.21875 -74.578125 Z M 41.640625 -72.125 L 40.828125 -72.390625 L 40.546875 -72.390625 L 41.09375 -71.84375 Z M 104.234375 -65.59375 C 104.234375 -65.769531 104.050781 -66.039062 103.6875 -66.40625 L 102.875 -66.953125 L 101.515625 -66.953125 L 102.0625 -65.3125 L 103.421875 -65.3125 L 103.6875 -65.59375 Z M 41.09375 -64.234375 L 41.09375 -63.40625 L 42.453125 -63.40625 L 43.265625 -64.234375 Z M 107.5 -57.703125 L 107.5 -58.515625 L 106.953125 -59.609375 L 106.140625 -59.609375 L 106.140625 -57.703125 Z M 37.5625 -58.515625 C 36.46875 -57.785156 35.832031 -57.148438 35.65625 -56.609375 L 37.015625 -56.609375 L 38.921875 -57.703125 C 38.921875 -57.878906 38.785156 -58.054688 38.515625 -58.234375 C 38.242188 -58.421875 37.925781 -58.515625 37.5625 -58.515625 Z M 89.8125 -56.0625 C 90.175781 -56.0625 90.359375 -56.15625 90.359375 -56.34375 L 90.359375 -56.609375 L 89.265625 -57.15625 C 88.535156 -56.789062 88.171875 -56.425781 88.171875 -56.0625 Z M 109.40625 -54.4375 C 109.769531 -54.4375 110.085938 -54.570312 110.359375 -54.84375 C 110.628906 -55.113281 110.765625 -55.335938 110.765625 -55.515625 C 110.035156 -55.515625 109.582031 -55.15625 109.40625 -54.4375 Z M 13.609375 -47.625 L 13.609375 -48.4375 L 13.0625 -48.4375 L 13.0625 -47.625 Z M 38.375 -44.09375 C 39.457031 -44.632812 40 -45.175781 40 -45.71875 C 40 -46.445312 39.546875 -46.898438 38.640625 -47.078125 L 38.109375 -46.8125 L 37.828125 -46 L 38.109375 -45.171875 Z M 87.640625 -45.453125 C 87.992188 -45.265625 88.445312 -45.171875 89 -45.171875 C 89.175781 -45.359375 89.445312 -45.453125 89.8125 -45.453125 L 89.8125 -46.265625 L 88.71875 -46.265625 C 88 -45.898438 87.640625 -45.628906 87.640625 -45.453125 Z M 13.609375 -46 L 13.0625 -45.71875 L 13.609375 -45.453125 L 14.15625 -45.71875 Z M 112.671875 -45.171875 C 112.304688 -44.992188 112.21875 -44.816406 112.40625 -44.640625 L 112.671875 -44.09375 L 113.765625 -44.640625 L 113.765625 -44.90625 C 113.765625 -44.90625 113.71875 -44.945312 113.625 -45.03125 C 113.53125 -45.125 113.484375 -45.171875 113.484375 -45.171875 L 113.21875 -45.453125 C 113.03125 -45.453125 112.9375 -45.359375 112.9375 -45.171875 Z M 109.953125 -42.453125 C 109.585938 -42.816406 109.316406 -43 109.140625 -43 C 109.140625 -41.914062 109.226562 -41.191406 109.40625 -40.828125 L 109.40625 -40 C 109.582031 -40.1875 110.035156 -40.28125 110.765625 -40.28125 L 110.765625 -41.640625 Z M 20.6875 -41.09375 C 21.050781 -41.09375 21.234375 -41.363281 21.234375 -41.90625 L 20.6875 -42.1875 L 19.328125 -42.1875 C 19.328125 -41.644531 19.414062 -41.375 19.59375 -41.375 C 20.132812 -41.375 20.5 -41.28125 20.6875 -41.09375 Z M 38.109375 -40.546875 C 38.460938 -40.546875 38.460938 -40.726562 38.109375 -41.09375 C 37.742188 -41.457031 37.5625 -41.640625 37.5625 -41.640625 C 37.5625 -41.273438 37.378906 -41.003906 37.015625 -40.828125 C 37.015625 -40.640625 37.195312 -40.546875 37.5625 -40.546875 Z M 122.46875 -39.46875 C 122.101562 -39.820312 121.921875 -40 121.921875 -40 C 121.554688 -40.363281 121.285156 -40.546875 121.109375 -40.546875 L 120.015625 -40 C 120.015625 -40 119.96875 -39.953125 119.875 -39.859375 C 119.789062 -39.773438 119.75 -39.734375 119.75 -39.734375 L 119.484375 -39.734375 L 118.65625 -40 C 118.65625 -40.363281 118.75 -40.640625 118.9375 -40.828125 L 119.203125 -41.09375 C 119.203125 -41.09375 119.25 -41.140625 119.34375 -41.234375 C 119.4375 -41.328125 119.484375 -41.375 119.484375 -41.375 L 118.65625 -41.375 C 118.289062 -41.550781 117.972656 -41.59375 117.703125 -41.5 C 117.429688 -41.414062 117.113281 -41.375 116.75 -41.375 L 117.296875 -39.734375 C 117.296875 -39.554688 117.34375 -39.328125 117.4375 -39.046875 C 117.53125 -38.773438 117.753906 -38.460938 118.109375 -38.109375 C 118.660156 -38.109375 118.9375 -38.195312 118.9375 -38.375 L 120.015625 -38.375 C 120.921875 -38.375 121.554688 -38.285156 121.921875 -38.109375 Z M 29.671875 -39.1875 C 30.210938 -39.1875 30.800781 -39.410156 31.4375 -39.859375 C 32.070312 -40.316406 32.570312 -40.820312 32.9375 -41.375 L 32.390625 -41.09375 C 32.390625 -40.914062 32.023438 -40.828125 31.296875 -40.828125 C 30.929688 -40.828125 30.75 -40.914062 30.75 -41.09375 L 29.671875 -41.375 C 28.753906 -41.375 28.117188 -40.828125 27.765625 -39.734375 L 28.84375 -39.46875 C 28.84375 -39.28125 29.117188 -39.1875 29.671875 -39.1875 Z M 114.3125 -39.734375 L 114.03125 -40.828125 C 113.125 -40.460938 112.671875 -40.097656 112.671875 -39.734375 L 114.3125 -39.1875 Z M 109.40625 -38.109375 C 109.039062 -37.191406 108.769531 -36.734375 108.59375 -36.734375 C 108.226562 -37.097656 107.773438 -37.191406 107.234375 -37.015625 L 105.59375 -37.015625 C 105.78125 -36.828125 105.914062 -36.597656 106 -36.328125 C 106.09375 -36.054688 106.226562 -35.921875 106.40625 -35.921875 C 106.769531 -35.554688 107.132812 -35.375 107.5 -35.375 C 107.863281 -35.375 108.132812 -35.46875 108.3125 -35.65625 L 109.40625 -35.921875 L 109.953125 -35.921875 L 110.5 -36.46875 L 110.5 -37.28125 Z M 41.09375 -37.28125 C 41.09375 -37.28125 41.046875 -37.328125 40.953125 -37.421875 C 40.867188 -37.515625 40.828125 -37.5625 40.828125 -37.5625 L 40.546875 -37.828125 L 40 -37.28125 Z M 97.15625 -36.734375 L 96.609375 -36.46875 L 97.15625 -36.203125 L 97.703125 -36.46875 Z M 28.03125 -32.390625 C 28.570312 -32.753906 28.84375 -33.023438 28.84375 -33.203125 C 28.84375 -33.566406 28.484375 -33.929688 27.765625 -34.296875 C 27.035156 -34.296875 26.488281 -34.382812 26.125 -34.5625 C 25.394531 -34.195312 25.03125 -33.742188 25.03125 -33.203125 C 25.03125 -32.835938 25.125 -32.65625 25.3125 -32.65625 C 25.3125 -32.65625 25.351562 -32.609375 25.4375 -32.515625 C 25.53125 -32.429688 25.578125 -32.390625 25.578125 -32.390625 Z M 112.671875 -31.5625 C 113.578125 -31.019531 114.300781 -30.75 114.84375 -30.75 C 115.394531 -30.75 115.757812 -30.84375 115.9375 -31.03125 C 115.9375 -31.382812 116.023438 -31.5625 116.203125 -31.5625 C 115.847656 -31.925781 115.394531 -32.109375 114.84375 -32.109375 L 113.765625 -32.65625 Z M 13.609375 -30.203125 L 13.609375 -31.5625 L 13.0625 -31.5625 L 13.0625 -30.203125 Z M 44.359375 -30.75 L 44.359375 -30.203125 L 45.71875 -30.203125 L 45.71875 -30.75 Z M 102.328125 -30.484375 C 102.328125 -29.578125 102.960938 -29.125 104.234375 -29.125 C 103.691406 -29.488281 103.421875 -29.757812 103.421875 -29.9375 Z M 108.046875 -25.859375 C 108.046875 -25.859375 107.863281 -26.398438 107.5 -27.484375 C 107.320312 -27.671875 107.234375 -28.035156 107.234375 -28.578125 C 107.234375 -28.390625 107.09375 -27.976562 106.8125 -27.34375 C 106.539062 -26.71875 106.5 -26.222656 106.6875 -25.859375 Z M 87.359375 -27.21875 L 87.640625 -27.21875 L 88.71875 -27.484375 C 88.71875 -27.847656 88.359375 -28.03125 87.640625 -28.03125 L 87.359375 -28.03125 L 87.09375 -27.765625 L 87.359375 -27.484375 Z M 9.796875 -26.9375 C 8.347656 -27.300781 7.347656 -27.484375 6.796875 -27.484375 C 6.253906 -27.484375 5.984375 -27.210938 5.984375 -26.671875 C 6.523438 -25.941406 7.523438 -25.578125 8.984375 -25.578125 L 9.796875 -25.859375 Z M 117.296875 -22.3125 C 117.835938 -22.675781 118.109375 -23.039062 118.109375 -23.40625 L 117.578125 -24.5 C 117.210938 -24.132812 116.9375 -23.953125 116.75 -23.953125 L 115.9375 -23.40625 C 114.851562 -22.863281 114.3125 -22.410156 114.3125 -22.046875 C 115.03125 -22.046875 115.390625 -21.953125 115.390625 -21.765625 C 115.210938 -21.585938 115.304688 -21.226562 115.671875 -20.6875 L 116.203125 -20.6875 C 116.203125 -20.863281 116.382812 -20.953125 116.75 -20.953125 C 116.382812 -21.492188 116.566406 -21.945312 117.296875 -22.3125 Z M 14.15625 -21.234375 L 13.328125 -21.234375 L 13.328125 -18.234375 C 13.328125 -18.773438 13.421875 -19.226562 13.609375 -19.59375 C 13.609375 -19.957031 13.695312 -20.226562 13.875 -20.40625 Z M 93.625 -20.40625 C 93.257812 -19.863281 93.53125 -19.59375 94.4375 -19.59375 L 94.984375 -20.140625 Z M 114.3125 -16.0625 L 115.125 -16.875 C 114.757812 -16.875 114.578125 -17.054688 114.578125 -17.421875 L 113.21875 -17.421875 C 112.851562 -17.421875 112.671875 -17.238281 112.671875 -16.875 C 112.847656 -16.507812 113.117188 -16.328125 113.484375 -16.328125 Z M 119.75 -16.59375 L 119.75 -15.234375 L 120.296875 -15.234375 L 120.296875 -16.59375 Z M 88.71875 -14.703125 C 88 -15.054688 87.457031 -15.234375 87.09375 -15.234375 L 86 -15.515625 C 85.457031 -15.328125 85.226562 -15.050781 85.3125 -14.6875 C 85.40625 -14.332031 85.632812 -14.15625 86 -14.15625 Z M 88.71875 -10.34375 C 89.8125 -11.070312 90.628906 -11.4375 91.171875 -11.4375 C 92.078125 -11.613281 92.894531 -12.15625 93.625 -13.0625 L 93.625 -13.609375 L 93.34375 -13.609375 C 92.988281 -13.609375 92.71875 -13.515625 92.53125 -13.328125 L 91.4375 -13.0625 L 89.8125 -13.609375 C 89.269531 -13.421875 88.859375 -12.921875 88.578125 -12.109375 C 88.304688 -11.296875 88.351562 -10.707031 88.71875 -10.34375 Z M 112.671875 -9.53125 C 112.128906 -9.882812 111.859375 -10.0625 111.859375 -10.0625 L 111.046875 -10.0625 L 111.046875 -9.25 Z M 118.109375 -8.703125 C 117.929688 -8.703125 117.476562 -8.882812 116.75 -9.25 C 116.570312 -9.4375 116.210938 -9.53125 115.671875 -9.53125 C 115.304688 -9.53125 115.125 -9.4375 115.125 -9.25 C 115.125 -9.25 115.078125 -9.203125 114.984375 -9.109375 C 114.890625 -9.023438 114.84375 -8.984375 114.84375 -8.984375 L 114.84375 -8.171875 L 115.125 -7.625 L 115.390625 -7.34375 L 118.109375 -8.171875 Z M 95.796875 -6.265625 C 95.984375 -6.265625 96.347656 -6.71875 96.890625 -7.625 C 95.429688 -7.625 94.160156 -8.164062 93.078125 -9.25 C 92.535156 -8.707031 92.265625 -8.253906 92.265625 -7.890625 C 92.265625 -7.523438 92.535156 -7.160156 93.078125 -6.796875 C 93.617188 -6.441406 94.160156 -6.265625 94.703125 -6.265625 Z M 95.796875 -6.265625 "/></g></g></g><g fill="#e37147" fill-opacity="1"><g transform="translate(164.917476, 201.475096)"><g><path d="M 48.703125 0 L 4.78125 0 L 4.78125 -43.921875 L 48.703125 -43.921875 Z M 48.703125 0 "/></g></g></g></svg>